PERFORMER "Nic Fanciulli"
TITLE "Essential Mix (2003-06-01)"
FILE "Essential Mix 2003-06-01 - Nic Fanciulli" MP3
  TRACK 01 AUDIO
    PERFORMER "Essential Mix"
    TITLE "Intro"
    INDEX 01 00:00:00
  TRACK 02 AUDIO
    PERFORMER "Joshua"
    TITLE "Intro"
    INDEX 01 01:06:00
  TRACK 03 AUDIO
    PERFORMER "Toe Jam"
    TITLE "Toe Jam (Phil Weeks Remix)"
    INDEX 01 04:00:00
  TRACK 04 AUDIO
    PERFORMER "Reason"
    TITLE "Itchin"
    INDEX 01 09:15:00
  TRACK 05 AUDIO
    PERFORMER "Sandy Rivera"
    TITLE "I Cant Stop (Nic Fanciulli Skylark Edit)"
    INDEX 01 15:15:00
  TRACK 06 AUDIO
    PERFORMER "Jason Jinx"
    TITLE "Your First Time"
    INDEX 01 19:25:00
  TRACK 07 AUDIO
    PERFORMER "Mark Knight"
    TITLE "Filthy House"
    INDEX 01 26:10:00
  TRACK 08 AUDIO
    PERFORMER "Soul Rebels"
    TITLE "Revolution"
    INDEX 01 34:35:00
  TRACK 09 AUDIO
    PERFORMER "Halo Varga vs. Jason Jinx"
    TITLE "Disko Tone vs. Wet Acapela"
    INDEX 01 40:45:00
  TRACK 10 AUDIO
    PERFORMER "Switch"
    TITLE "Get Ya Dub On"
    INDEX 01 47:30:00
  TRACK 11 AUDIO
    PERFORMER "Bob Sinclair"
    TITLE "Kiss My Eyes (Radio Slave Dub)"
    INDEX 01 54:15:00
  TRACK 12 AUDIO
    PERFORMER "Junior Jack"
    TITLE "E Samba"
    INDEX 01 60:40:00
  TRACK 13 AUDIO
    PERFORMER "Moodbangers"
    TITLE "Moodbangers"
    INDEX 01 66:50:00
  TRACK 14 AUDIO
    PERFORMER "Yousef pres. Harry Monroe"
    TITLE "Action"
    INDEX 01 72:15:00
  TRACK 15 AUDIO
    PERFORMER "Harry Romero"
    TITLE "Night @ The Black"
    INDEX 01 80:40:00
  TRACK 16 AUDIO
    PERFORMER "Nic Fanciulli"
    TITLE "Dug It Up"
    INDEX 01 85:45:00
  TRACK 17 AUDIO
    PERFORMER "Audio Drive"
    TITLE "Voodoo"
    INDEX 01 92:30:00
  TRACK 18 AUDIO
    PERFORMER "Sessomatto"
    TITLE "I Need Somebody (Joey Negro Mix)"
    INDEX 01 97:10:00
  TRACK 19 AUDIO
    PERFORMER "Joeski"
    TITLE "Sentir Tu Amor (Dub)"
    INDEX 01 104:40:00
  TRACK 20 AUDIO
    PERFORMER "Sharam Jey"
    TITLE "Shake Your"
    INDEX 01 109:30:00
  TRACK 21 AUDIO
    PERFORMER "Eddie Amador"
    TITLE "House Music (Original Vox)"
    INDEX 01 115:20:00